<svg width="48" height="48" viewBox="0 0 968 968" fill="none" xmlns="http://www.w3.org/2000/svg"><g clip-path="url(#c)"><rect width="968" height="968" fill="#1F2937"/><path d="M313.444 6.71343C320.101 5.88251 335.677 5.96111 342.559 6.05887C407.114 7.35093 469.752 28.2152 522.163 65.8849C618.737 134.377 669.448 248.593 657.281 365.937C650.913 427.361 628.985 476.251 593.466 525.902C615.079 549.731 640.85 573.061 663.293 596.896C666.746 596.471 670.218 596.22 673.694 596.148C694.189 595.519 706.313 601.607 720.716 615.782C738.73 633.511 756.548 651.452 774.415 669.332L864.561 759.371L909.094 803.99C932.945 827.816 957.127 845.597 957.984 881.826C958.414 903.117 950.259 923.688 935.352 938.913C920.787 953.563 901.012 961.862 880.341 962C840.767 962.091 821.524 936.76 795.955 910.5L651.945 766.396C645.532 760.004 638.893 753.323 632.457 746.971C605.65 720.522 586.356 706.828 592.798 665.798C570.393 642.615 545.574 618.736 522.584 595.861C510.704 602.474 499.12 610.803 486.744 617.599C449.179 638.134 407.814 650.791 365.181 654.794C278.458 663.254 192.002 636.253 125.55 579.95C60.3374 525.624 19.2639 447.752 11.2815 363.306C-4.45562 177.087 126.388 21.9717 313.444 6.71343Z" fill="#3B82F6"/><path d="M312.961 36.7602C475.923 25.1654 617.475 147.578 629.221 310.256C640.967 472.931 518.465 614.346 355.522 626.205C192.39 638.078 50.538 515.61 38.7788 352.745C27.0197 189.88 149.81 48.3677 312.961 36.7602Z" fill="#1F2937"/><path d="M314.626 85.8587C450.227 74.59 569.218 175.547 580.187 311.174C591.153 446.799 489.933 565.566 354.283 576.231C219.058 586.864 100.748 486.03 89.8133 350.83C78.8805 215.629 179.451 97.0934 314.626 85.8587Z" fill="#3B82F6"/><path d="M325.75 114.18C445.02 109.356 545.689 201.978 550.798 321.234C555.907 440.491 463.525 541.382 344.28 546.775C224.632 552.185 123.328 459.425 118.202 339.764C113.076 220.105 206.079 119.019 325.75 114.18Z" fill="#1F2937"/><path d="M314.681 331.6C290.535 306.543 264.873 282.39 240.471 257.592C232.262 249.251 212.509 230.752 206.48 222.138C204.826 219.798 203.957 216.993 204.002 214.129C204.112 203.165 218.153 196.867 226.842 204.089C241.004 215.864 253.287 229.81 266.522 242.601C289.005 265.463 312.116 287.873 334.442 310.783L405.24 240.126C416.646 228.702 428.028 216.989 440.021 205.997C455.199 192.085 473.03 211.044 460.911 224.148C426.945 260.877 389.287 294.873 354.713 331.054L427.838 403.945C438.998 415.084 451.68 426.869 461.664 438.878C472.517 453.291 454.588 470.296 440.818 457.463C416.725 435.008 394.279 410.696 370.676 387.718C358.618 375.98 346.802 362.95 334.421 351.697L266.742 419.547C259.922 426.368 237.414 448.301 231.923 455.039C221.068 464.175 209.258 465.914 204.155 450.049C204.089 439.299 215.526 430.369 223.475 422.336L280.244 365.264C290.503 354.979 303.968 340.802 314.681 331.6Z" fill="#EF4444"/><path d="M673.419 625.003C684.915 624.929 690.226 626.222 698.358 634.226C715.924 651.51 733.284 669.154 750.65 686.622L839.503 775.555L890.227 826.258C897.157 833.223 916.882 851.666 921.179 859.564C941.806 897.489 912.573 931.26 874.653 932C849.775 928.717 829.616 902.509 812.404 885.314L748.496 821.423L669.776 742.711C623.115 695.972 594.848 686.482 656.091 634.412C662.296 629.136 665.458 627.167 673.419 625.003Z" fill="#1F2937"/><path d="M574.604 549C581.177 552.428 630.94 603.475 639 611.402L609.256 641C600.805 635.532 553.034 585.819 545 576.855L546.302 575.777C556.463 567.458 565.3 558.252 574.604 549Z" fill="#1F2937"/></g><defs><clipPath id="c"><rect width="968" height="968" fill="white"/></clipPath></defs></svg>
